<?xml version="1.0" standalone="no"?>
<svg xmlns:xlink="http://www.w3.org/1999/xlink" id="wave" style="transform:rotate(0deg); transition: 0.3s" viewBox="0 0 1440 490" version="1.1" xmlns="http://www.w3.org/2000/svg"><defs><linearGradient id="sw-gradient-0" x1="0" x2="0" y1="1" y2="0"><stop stop-color="rgba(255, 255, 255, 0.45)" offset="0%"/><stop stop-color="rgba(255, 255, 255, 0.71)" offset="100%"/></linearGradient></defs><path style="transform:translate(0, 0px); opacity:1" fill="url(#sw-gradient-0)" d="M0,49L120,114.3C240,180,480,310,720,310.3C960,310,1200,180,1440,147C1680,114,1920,180,2160,171.5C2400,163,2640,82,2880,73.5C3120,65,3360,131,3600,179.7C3840,229,4080,261,4320,285.8C4560,310,4800,327,5040,334.8C5280,343,5520,343,5760,302.2C6000,261,6240,180,6480,196C6720,212,6960,327,7200,367.5C7440,408,7680,376,7920,375.7C8160,376,8400,408,8640,424.7C8880,441,9120,441,9360,392C9600,343,9840,245,10080,171.5C10320,98,10560,49,10800,73.5C11040,98,11280,196,11520,245C11760,294,12000,294,12240,294C12480,294,12720,294,12960,253.2C13200,212,13440,131,13680,89.8C13920,49,14160,49,14400,65.3C14640,82,14880,114,15120,155.2C15360,196,15600,245,15840,236.8C16080,229,16320,163,16560,122.5C16800,82,17040,65,17160,57.2L17280,49L17280,490L17160,490C17040,490,16800,490,16560,490C16320,490,16080,490,15840,490C15600,490,15360,490,15120,490C14880,490,14640,490,14400,490C14160,490,13920,490,13680,490C13440,490,13200,490,12960,490C12720,490,12480,490,12240,490C12000,490,11760,490,11520,490C11280,490,11040,490,10800,490C10560,490,10320,490,10080,490C9840,490,9600,490,9360,490C9120,490,8880,490,8640,490C8400,490,8160,490,7920,490C7680,490,7440,490,7200,490C6960,490,6720,490,6480,490C6240,490,6000,490,5760,490C5520,490,5280,490,5040,490C4800,490,4560,490,4320,490C4080,490,3840,490,3600,490C3360,490,3120,490,2880,490C2640,490,2400,490,2160,490C1920,490,1680,490,1440,490C1200,490,960,490,720,490C480,490,240,490,120,490L0,490Z"/></svg>